<svg width="16" height="16" viewBox="0 0 16 16" fill="none" xmlns="http://www.w3.org/2000/svg">
<path fill-rule="evenodd" clip-rule="evenodd" d="M7 7.58579V2C7 1.44772 7.44772 1 8 1C8.55228 1 9 1.44772 9 2V7.58579L10.2929 6.29289C10.6834 5.90237 11.3166 5.90237 11.7071 6.29289C12.0976 6.68342 12.0976 7.31658 11.7071 7.70711L9.41421 10C8.63316 10.781 7.36683 10.781 6.58579 10L4.29289 7.70711C3.90237 7.31658 3.90237 6.68342 4.29289 6.29289C4.68342 5.90237 5.31658 5.90237 5.70711 6.29289L7 7.58579ZM1 11C1 10.4477 1.44772 10 2 10C2.55228 10 3 10.4477 3 11V12C3 12.5523 3.44772 13 4 13H12C12.5523 13 13 12.5523 13 12V11C13 10.4477 13.4477 10 14 10C14.5523 10 15 10.4477 15 11V12C15 13.6569 13.6569 15 12 15H4C2.34315 15 1 13.6569 1 12V11Z" fill="#1771E6"/>
</svg>
