<svg width="14" height="14" viewBox="0 0 14 14" fill="none" xmlns="http://www.w3.org/2000/svg">
<path fill-rule="evenodd" clip-rule="evenodd" d="M7 14C10.866 14 14 10.866 14 7C14 3.13401 10.866 0 7 0C3.13401 0 0 3.13401 0 7C0 10.866 3.13401 14 7 14ZM7.99915 7.98492C7.99863 7.97941 7.99825 7.97532 7.99929 7.97163C8.00229 7.96094 8.01723 7.95361 8.07542 7.92504C8.11276 7.90671 8.1679 7.87965 8.24911 7.83735C8.35158 7.78437 8.41371 7.75211 8.47222 7.72077C9.46828 7.18717 10 6.45921 10 5.14286C10 3.42193 8.67286 2 7 2C5.38377 2 4 3.0241 4 4.5C4 5.05228 4.44772 5.5 5 5.5C5.55228 5.5 6 5.05228 6 4.5C6 4.28145 6.38029 4 7 4C7.53628 4 8 4.49685 8 5.14286C8 5.64198 7.92458 5.74523 7.52778 5.95781C7.48255 5.98204 7.43413 6.00718 7.32524 6.06352C6.44966 6.51956 6 7.0135 6 8C6 8.55229 6.44772 9 7 9C7.55228 9 8 8.55229 8 8C8 7.99391 7.99954 7.98902 7.99915 7.98492ZM8 11C8 11.5523 7.55228 12 7 12C6.44772 12 6 11.5523 6 11C6 10.4477 6.44772 10 7 10C7.55228 10 8 10.4477 8 11Z" fill="#CBCFD3"/>
</svg>
