<svg width="16" height="16" viewBox="0 0 16 16" fill="none" xmlns="http://www.w3.org/2000/svg">
<path fill-rule="evenodd" clip-rule="evenodd" d="M14 11C14 10.4477 14.4477 10 15 10C15.5523 10 16 10.4477 16 11V13C16 14.6569 14.6569 16 13 16H3C1.34315 16 0 14.6569 0 13V3C0 1.34315 1.34315 0 3 0H5C5.55228 0 6 0.447715 6 1C6 1.55228 5.55228 2 5 2H3C2.44772 2 2 2.44772 2 3V13C2 13.5523 2.44772 14 3 14H13C13.5523 14 14 13.5523 14 13V11ZM10 0C9.44772 0 9 0.447715 9 1C9 1.55228 9.44772 2 10 2H12.5858L6.29289 8.29289C5.90237 8.68342 5.90237 9.31658 6.29289 9.70711C6.68342 10.0976 7.31658 10.0976 7.70711 9.70711L14 3.41421V6C14 6.55228 14.4477 7 15 7C15.5523 7 16 6.55228 16 6V1C16 0.447715 15.5523 0 15 0H10Z" fill="#BBBBBB"/>
</svg>
