<svg width="680" height="86" viewBox="0 0 680 86" fill="none" xmlns="http://www.w3.org/2000/svg">
<path d="M49.7812 71L48.8137 71.2528L49.009 72H49.7812V71ZM46.2656 57.5469L47.2331 57.294L47.0379 56.5469H46.2656V57.5469ZM25.6406 57.5469V56.5469H24.8684L24.6731 57.294L25.6406 57.5469ZM22.125 71V72H22.8973L23.0925 71.2528L22.125 71ZM1.875 71L0.924359 70.6897L0.496675 72H1.875V71ZM23.9531 3.35938V2.35938H23.2276L23.0025 3.04908L23.9531 3.35938ZM48.8906 3.35938L49.8413 3.04908L49.6161 2.35938H48.8906V3.35938ZM70.9688 71V72H72.3471L71.9194 70.6897L70.9688 71ZM35.7656 18.9688V17.9688H34.9963L34.7991 18.7124L35.7656 18.9688ZM29.25 43.5312L28.2834 43.2749L27.9501 44.5312H29.25V43.5312ZM42.6562 43.5312V44.5312H43.9561L43.6228 43.2749L42.6562 43.5312ZM36.1406 18.9688L37.1072 18.7124L36.9099 17.9688H36.1406V18.9688ZM50.7488 70.7472L47.2331 57.294L45.2981 57.7997L48.8137 71.2528L50.7488 70.7472ZM46.2656 56.5469H25.6406V58.5469H46.2656V56.5469ZM24.6731 57.294L21.1575 70.7472L23.0925 71.2528L26.6081 57.7997L24.6731 57.294ZM22.125 70H1.875V72H22.125V70ZM2.82564 71.3103L24.9038 3.66967L23.0025 3.04908L0.924359 70.6897L2.82564 71.3103ZM23.9531 4.35938H48.8906V2.35938H23.9531V4.35938ZM47.94 3.66967L70.0181 71.3103L71.9194 70.6897L49.8413 3.04908L47.94 3.66967ZM70.9688 70H49.7812V72H70.9688V70ZM34.7991 18.7124L28.2834 43.2749L30.2166 43.7876L36.7322 19.2251L34.7991 18.7124ZM29.25 44.5312H42.6562V42.5312H29.25V44.5312ZM43.6228 43.2749L37.1072 18.7124L35.1741 19.2251L41.6897 43.7876L43.6228 43.2749ZM36.1406 17.9688H35.7656V19.9688H36.1406V17.9688ZM146.219 71V72H147.219V71H146.219ZM126.344 71H125.344V72H126.344V71ZM126.344 19.1094H127.344V18.1094H126.344V19.1094ZM111.625 19.1094V18.1094H110.671L110.626 19.0621L111.625 19.1094ZM110.5 42.875L111.499 42.9246L111.499 42.9223L110.5 42.875ZM97.8906 69.6875L98.3221 70.5897L98.33 70.5858L97.8906 69.6875ZM80.7812 71H79.7812V71.7543L80.5065 71.9615L80.7812 71ZM80.7812 53.7969L80.955 52.8121L79.7812 52.605V53.7969H80.7812ZM88.2812 53.2812L88.7996 54.1364L88.8089 54.1308L88.8181 54.1249L88.2812 53.2812ZM90.6719 50.4688L91.5799 50.8878L91.5838 50.8791L90.6719 50.4688ZM91.8906 46.4844L92.8752 46.6594L92.8758 46.6557L91.8906 46.4844ZM92.4062 41.3281L93.4052 41.3749L93.4054 41.3701L92.4062 41.3281ZM94 3.35938V2.35938H93.0411L93.0009 3.31744L94 3.35938ZM146.219 3.35938H147.219V2.35938H146.219V3.35938ZM146.219 70H126.344V72H146.219V70ZM127.344 71V19.1094H125.344V71H127.344ZM126.344 18.1094H111.625V20.1094H126.344V18.1094ZM110.626 19.0621L109.501 42.8277L111.499 42.9223L112.624 19.1567L110.626 19.0621ZM109.501 42.8254C109.285 47.1782 108.73 51.0127 107.846 54.3366L109.779 54.8509C110.707 51.3623 111.277 47.3843 111.499 42.9246L109.501 42.8254ZM107.846 54.3366C106.965 57.6493 105.679 60.5621 103.996 63.0859L105.66 64.1953C107.478 61.4691 108.848 58.3507 109.779 54.8509L107.846 54.3366ZM103.996 63.0859C102.346 65.5614 100.17 67.4595 97.4512 68.7892L98.33 70.5858C101.362 69.103 103.811 66.9698 105.66 64.1953L103.996 63.0859ZM97.4592 68.7854C94.7468 70.0826 91.4944 70.75 87.6719 70.75V72.75C91.7243 72.75 95.2845 72.0424 98.3221 70.5896L97.4592 68.7854ZM87.6719 70.75C84.8751 70.75 82.6812 70.5028 81.056 70.0385L80.5065 71.9615C82.3813 72.4972 84.7811 72.75 87.6719 72.75V70.75ZM81.7812 71V53.7969H79.7812V71H81.7812ZM80.6075 54.7817C82.2215 55.0665 83.5384 55.2188 84.5312 55.2188V53.2188C83.7116 53.2188 82.5285 53.0898 80.955 52.8121L80.6075 54.7817ZM84.5312 55.2188C86.1429 55.2188 87.5811 54.8749 88.7996 54.1364L87.7629 52.4261C86.9189 52.9376 85.8571 53.2188 84.5312 53.2188V55.2188ZM88.8181 54.1249C90.027 53.3556 90.9451 52.263 91.5798 50.8878L89.7639 50.0497C89.2736 51.112 88.598 51.8944 87.7444 52.4376L88.8181 54.1249ZM91.5838 50.8791C92.1815 49.5509 92.6114 48.1434 92.8752 46.6594L90.9061 46.3093C90.6699 47.6379 90.2872 48.8866 89.76 50.0584L91.5838 50.8791ZM92.8758 46.6557C93.1351 45.1651 93.3101 43.4025 93.4052 41.3749L91.4073 41.2813C91.3149 43.2537 91.1462 44.9287 90.9054 46.313L92.8758 46.6557ZM93.4054 41.3701L94.9991 3.40131L93.0009 3.31744L91.4071 41.2862L93.4054 41.3701ZM94 4.35938H146.219V2.35938H94V4.35938ZM145.219 3.35938V71H147.219V3.35938H145.219ZM211.25 55.2031H212.25V54.2031H211.25V55.2031ZM211.25 71V72H212.25V71H211.25ZM163.531 71H162.531V72H163.531V71ZM163.531 3.35938V2.35938H162.531V3.35938H163.531ZM211.25 3.35938H212.25V2.35938H211.25V3.35938ZM211.25 19.1562V20.1562H212.25V19.1562H211.25ZM183.406 19.1562V18.1562H182.406V19.1562H183.406ZM183.406 30.0781H182.406V31.0781H183.406V30.0781ZM209.516 30.0781H210.516V29.0781H209.516V30.0781ZM209.516 44.3281V45.3281H210.516V44.3281H209.516ZM183.406 44.3281V43.3281H182.406V44.3281H183.406ZM183.406 55.2031H182.406V56.2031H183.406V55.2031ZM210.25 55.2031V71H212.25V55.2031H210.25ZM211.25 70H163.531V72H211.25V70ZM164.531 71V3.35938H162.531V71H164.531ZM163.531 4.35938H211.25V2.35938H163.531V4.35938ZM210.25 3.35938V19.1562H212.25V3.35938H210.25ZM211.25 18.1562H183.406V20.1562H211.25V18.1562ZM182.406 19.1562V30.0781H184.406V19.1562H182.406ZM183.406 31.0781H209.516V29.0781H183.406V31.0781ZM208.516 30.0781V44.3281H210.516V30.0781H208.516ZM209.516 43.3281H183.406V45.3281H209.516V43.3281ZM182.406 44.3281V55.2031H184.406V44.3281H182.406ZM183.406 56.2031H211.25V54.2031H183.406V56.2031ZM265.734 35.0938L264.953 34.4702L264.473 35.071L264.931 35.6887L265.734 35.0938ZM292.312 71V72H294.297L293.116 70.405L292.312 71ZM268.547 71L267.744 71.5961L268.044 72H268.547V71ZM248.812 44.4219L249.615 43.8257L249.316 43.4219H248.812V44.4219ZM248.438 44.4219V43.4219H247.438V44.4219H248.438ZM248.438 71V72H249.438V71H248.438ZM228.562 71H227.562V72H228.562V71ZM228.562 3.35938V2.35938H227.562V3.35938H228.562ZM248.438 3.35938H249.438V2.35938H248.438V3.35938ZM248.438 29.5156H247.438V30.5156H248.438V29.5156ZM248.812 29.5156V30.5156H249.293L249.594 30.14L248.812 29.5156ZM269.719 3.35938V2.35938H269.238L268.938 2.73502L269.719 3.35938ZM291.047 3.35938L291.829 3.98294L293.124 2.35938H291.047V3.35938ZM264.931 35.6887L291.509 71.595L293.116 70.405L266.538 34.4988L264.931 35.6887ZM292.312 70H268.547V72H292.312V70ZM269.35 70.4039L249.615 43.8257L248.01 45.018L267.744 71.5961L269.35 70.4039ZM248.812 43.4219H248.438V45.4219H248.812V43.4219ZM247.438 44.4219V71H249.438V44.4219H247.438ZM248.438 70H228.562V72H248.438V70ZM229.562 71V3.35938H227.562V71H229.562ZM228.562 4.35938H248.438V2.35938H228.562V4.35938ZM247.438 3.35938V29.5156H249.438V3.35938H247.438ZM248.438 30.5156H248.812V28.5156H248.438V30.5156ZM249.594 30.14L270.5 3.98373L268.938 2.73502L248.031 28.8913L249.594 30.14ZM269.719 4.35938H291.047V2.35938H269.719V4.35938ZM290.265 2.73581L264.953 34.4702L266.516 35.7173L291.829 3.98294L290.265 2.73581ZM309.766 11L310.49 11.6889L310.492 11.6871L309.766 11ZM349.797 5L349.347 5.89324L349.352 5.89563L349.797 5ZM360.953 14.7031L360.122 15.2593L360.127 15.2665L360.953 14.7031ZM365.688 28.6719V29.6719H366.756L366.685 28.6058L365.688 28.6719ZM346.469 28.6719L345.483 28.8393L345.624 29.6719H346.469V28.6719ZM342.297 20.75L341.628 21.4933L341.633 21.498L342.297 20.75ZM324.578 22.9531L323.759 22.3797L323.755 22.3847L324.578 22.9531ZM346.562 45.5938V44.5938H345.731L345.579 45.4117L346.562 45.5938ZM365.781 45.5938L366.779 45.6595L366.849 44.5938H365.781V45.5938ZM356.219 65.2812L355.564 64.5254L355.562 64.5272L356.219 65.2812ZM334.328 71.875C324.172 71.875 316.268 68.7789 310.492 62.6722L309.039 64.0465C315.263 70.6273 323.734 73.875 334.328 73.875V71.875ZM310.492 62.6722C304.712 56.5611 301.766 48.0986 301.766 37.1562H299.766C299.766 48.4639 302.819 57.4701 309.039 64.0465L310.492 62.6722ZM301.766 37.1562C301.766 26.2137 304.712 17.7681 310.49 11.6889L309.041 10.3111C302.819 16.8569 299.766 25.8488 299.766 37.1562H301.766ZM310.492 11.6871C316.268 5.58046 324.172 2.48438 334.328 2.48438V0.484375C323.734 0.484375 315.263 3.73204 309.039 10.3129L310.492 11.6871ZM334.328 2.48438C339.842 2.48438 344.842 3.62553 349.347 5.89323L350.246 4.10677C345.439 1.68697 340.127 0.484375 334.328 0.484375V2.48438ZM349.352 5.89563C353.859 8.13377 357.442 11.2538 360.122 15.2593L361.784 14.147C358.902 9.83997 355.048 6.49123 350.242 4.10437L349.352 5.89563ZM360.127 15.2665C362.835 19.2378 364.357 23.7209 364.69 28.738L366.685 28.6058C366.33 23.2479 364.697 18.4185 361.779 14.1398L360.127 15.2665ZM365.688 27.6719H346.469V29.6719H365.688V27.6719ZM347.455 28.5045C346.859 24.9988 345.372 22.1418 342.961 20.002L341.633 21.498C343.659 23.2957 344.953 25.7199 345.483 28.8393L347.455 28.5045ZM342.966 20.0067C340.583 17.8619 337.683 16.7969 334.328 16.7969V18.7969C337.223 18.7969 339.636 19.7006 341.628 21.4933L342.966 20.0067ZM334.328 16.7969C329.898 16.7969 326.347 18.6828 323.759 22.3797L325.397 23.5266C327.622 20.3485 330.57 18.7969 334.328 18.7969V16.7969ZM323.755 22.3847C321.225 26.0476 320.016 30.9911 320.016 37.1094H322.016C322.016 31.2277 323.182 26.7337 325.401 23.5216L323.755 22.3847ZM320.016 37.1094C320.016 43.3176 321.223 48.3096 323.755 51.9747L325.401 50.8378C323.183 47.6279 322.016 43.0887 322.016 37.1094H320.016ZM323.755 51.9747C326.316 55.6807 329.888 57.5625 334.375 57.5625V55.5625C330.549 55.5625 327.59 54.0068 325.401 50.8378L323.755 51.9747ZM334.375 57.5625C337.73 57.5625 340.63 56.4975 343.013 54.3527L341.675 52.8661C339.683 54.6587 337.27 55.5625 334.375 55.5625V57.5625ZM343.013 54.3527C345.39 52.213 346.888 49.3299 347.546 45.7758L345.579 45.4117C344.987 48.6076 343.672 51.0683 341.675 52.8661L343.013 54.3527ZM346.562 46.5938H365.781V44.5938H346.562V46.5938ZM364.783 45.528C364.269 53.3373 361.196 59.6465 355.564 64.5254L356.874 66.0371C362.929 60.791 366.231 53.9752 366.779 45.6595L364.783 45.528ZM355.562 64.5272C349.957 69.4091 342.904 71.875 334.328 71.875V73.875C343.315 73.875 350.856 71.2784 356.876 66.0353L355.562 64.5272ZM422.094 71L421.126 71.2528L421.321 72H422.094V71ZM418.578 57.5469L419.546 57.294L419.35 56.5469H418.578V57.5469ZM397.953 57.5469V56.5469H397.181L396.986 57.294L397.953 57.5469ZM394.438 71V72H395.21L395.405 71.2528L394.438 71ZM374.188 71L373.237 70.6897L372.809 72H374.188V71ZM396.266 3.35938V2.35938H395.54L395.315 3.04908L396.266 3.35938ZM421.203 3.35938L422.154 3.04908L421.929 2.35938H421.203V3.35938ZM443.281 71V72H444.66L444.232 70.6897L443.281 71ZM408.078 18.9688V17.9688H407.309L407.112 18.7124L408.078 18.9688ZM401.562 43.5312L400.596 43.2749L400.263 44.5312H401.562V43.5312ZM414.969 43.5312V44.5312H416.269L415.935 43.2749L414.969 43.5312ZM408.453 18.9688L409.42 18.7124L409.222 17.9688H408.453V18.9688ZM423.061 70.7472L419.546 57.294L417.611 57.7997L421.126 71.2528L423.061 70.7472ZM418.578 56.5469H397.953V58.5469H418.578V56.5469ZM396.986 57.294L393.47 70.7472L395.405 71.2528L398.921 57.7997L396.986 57.294ZM394.438 70H374.188V72H394.438V70ZM375.138 71.3103L397.216 3.66967L395.315 3.04908L373.237 70.6897L375.138 71.3103ZM396.266 4.35938H421.203V2.35938H396.266V4.35938ZM420.252 3.66967L442.331 71.3103L444.232 70.6897L422.154 3.04908L420.252 3.66967ZM443.281 70H422.094V72H443.281V70ZM407.112 18.7124L400.596 43.2749L402.529 43.7876L409.045 19.2251L407.112 18.7124ZM401.562 44.5312H414.969V42.5312H401.562V44.5312ZM415.935 43.2749L409.42 18.7124L407.487 19.2251L414.002 43.7876L415.935 43.2749ZM408.453 17.9688H408.078V19.9688H408.453V17.9688ZM520.875 71V72H521.875V71H520.875ZM501 71H500V72H501V71ZM501 44.8438H502V43.8438H501V44.8438ZM477.188 44.8438V43.8438H476.188V44.8438H477.188ZM477.188 71V72H478.188V71H477.188ZM457.312 71H456.312V72H457.312V71ZM457.312 3.35938V2.35938H456.312V3.35938H457.312ZM477.188 3.35938H478.188V2.35938H477.188V3.35938ZM477.188 29.0469H476.188V30.0469H477.188V29.0469ZM501 29.0469V30.0469H502V29.0469H501ZM501 3.35938V2.35938H500V3.35938H501ZM520.875 3.35938H521.875V2.35938H520.875V3.35938ZM520.875 70H501V72H520.875V70ZM502 71V44.8438H500V71H502ZM501 43.8438H477.188V45.8438H501V43.8438ZM476.188 44.8438V71H478.188V44.8438H476.188ZM477.188 70H457.312V72H477.188V70ZM458.312 71V3.35938H456.312V71H458.312ZM457.312 4.35938H477.188V2.35938H457.312V4.35938ZM476.188 3.35938V29.0469H478.188V3.35938H476.188ZM477.188 30.0469H501V28.0469H477.188V30.0469ZM502 29.0469V3.35938H500V29.0469H502ZM501 4.35938H520.875V2.35938H501V4.35938ZM519.875 3.35938V71H521.875V3.35938H519.875ZM562.562 39.1719L563.56 39.2426L563.56 39.2393L562.562 39.1719ZM561.156 48.9219L560.188 48.6709L560.186 48.6793L561.156 48.9219ZM558.297 54.8281L557.55 54.1628L557.297 54.4472V54.8281H558.297ZM558.297 55.2031H557.297V56.2031H558.297V55.2031ZM580.75 55.2031V56.2031H581.75V55.2031H580.75ZM580.75 19.0625H581.75V18.0625H580.75V19.0625ZM563.922 19.0625V18.0625H562.987L562.924 18.9951L563.922 19.0625ZM551.781 71V70H550.781V71H551.781ZM551.781 84.3594V85.3594H552.781V84.3594H551.781ZM533.969 84.3594H532.969V85.3594H533.969V84.3594ZM533.969 55.2031V54.2031H532.969V55.2031H533.969ZM538.422 55.2031V56.2031H538.795L539.077 55.9584L538.422 55.2031ZM542.781 48.6875L543.736 48.9858L543.737 48.9824L542.781 48.6875ZM544.422 37.25L543.424 37.1879L543.424 37.1888L544.422 37.25ZM546.531 3.35938V2.35938H545.592L545.533 3.29725L546.531 3.35938ZM600.625 3.35938H601.625V2.35938H600.625V3.35938ZM600.625 55.2031H599.625V56.2031H600.625V55.2031ZM609.062 55.2031H610.062V54.2031H609.062V55.2031ZM609.062 84.3594V85.3594H610.062V84.3594H609.062ZM591.25 84.3594H590.25V85.3594H591.25V84.3594ZM591.25 71H592.25V70H591.25V71ZM561.565 39.1012C561.286 43.037 560.823 46.2208 560.188 48.6709L562.124 49.1728C562.802 46.5605 563.276 43.2442 563.56 39.2426L561.565 39.1012ZM560.186 48.6793C559.588 51.0732 558.694 52.8799 557.55 54.1628L559.043 55.4935C560.462 53.9014 561.475 51.7705 562.126 49.1644L560.186 48.6793ZM557.297 54.8281V55.2031H559.297V54.8281H557.297ZM558.297 56.2031H580.75V54.2031H558.297V56.2031ZM581.75 55.2031V19.0625H579.75V55.2031H581.75ZM580.75 18.0625H563.922V20.0625H580.75V18.0625ZM562.924 18.9951L561.565 39.1044L563.56 39.2393L564.92 19.1299L562.924 18.9951ZM550.781 71V84.3594H552.781V71H550.781ZM551.781 83.3594H533.969V85.3594H551.781V83.3594ZM534.969 84.3594V55.2031H532.969V84.3594H534.969ZM533.969 56.2031H538.422V54.2031H533.969V56.2031ZM539.077 55.9584C541.332 54.0024 542.895 51.6761 543.736 48.9858L541.827 48.3892C541.105 50.6989 539.762 52.7163 537.767 54.4478L539.077 55.9584ZM543.737 48.9824C544.554 46.3344 545.106 42.4256 545.42 37.3112L543.424 37.1888C543.113 42.2619 542.571 45.9781 541.826 48.3926L543.737 48.9824ZM545.42 37.3121L547.529 3.4215L545.533 3.29725L543.424 37.1879L545.42 37.3121ZM546.531 4.35938H600.625V2.35938H546.531V4.35938ZM599.625 3.35938V55.2031H601.625V3.35938H599.625ZM600.625 56.2031H609.062V54.2031H600.625V56.2031ZM608.062 55.2031V84.3594H610.062V55.2031H608.062ZM609.062 83.3594H591.25V85.3594H609.062V83.3594ZM592.25 84.3594V71H590.25V84.3594H592.25ZM591.25 70H551.781V72H591.25V70ZM622.156 3.35938V2.35938H621.156V3.35938H622.156ZM671.281 10.0625L670.584 10.7793L670.586 10.7817L671.281 10.0625ZM642.031 52.5312V51.5312H641.031V52.5312H642.031ZM642.031 71V72H643.031V71H642.031ZM622.156 71H621.156V72H622.156V71ZM642.031 18.3125V17.3125H641.031V18.3125H642.031ZM642.031 37.8594H641.031V38.8594H642.031V37.8594ZM655.391 35.375L656.059 36.119L656.066 36.1127L655.391 35.375ZM655.391 20.8438L654.709 21.5756L654.716 21.5817L654.722 21.5877L655.391 20.8438ZM622.156 4.35938H653.047V2.35938H622.156V4.35938ZM653.047 4.35938C660.399 4.35938 666.21 6.52439 670.584 10.7793L671.979 9.34571C667.165 4.66311 660.82 2.35938 653.047 2.35938V4.35938ZM670.586 10.7817C674.984 15.0305 677.219 20.7379 677.219 28.0156H679.219C679.219 20.2934 676.829 14.032 671.976 9.34335L670.586 10.7817ZM677.219 28.0156C677.219 35.1788 674.873 40.8354 670.231 45.091L671.582 46.5653C676.69 41.8833 679.219 35.6649 679.219 28.0156H677.219ZM670.231 45.091C665.576 49.358 659.428 51.5312 651.688 51.5312V53.5312C659.822 53.5312 666.487 51.2357 671.582 46.5653L670.231 45.091ZM651.688 51.5312H642.031V53.5312H651.688V51.5312ZM641.031 52.5312V71H643.031V52.5312H641.031ZM642.031 70H622.156V72H642.031V70ZM623.156 71V3.35938H621.156V71H623.156ZM641.031 18.3125V37.8594H643.031V18.3125H641.031ZM642.031 38.8594H647.609V36.8594H642.031V38.8594ZM647.609 38.8594C651.113 38.8594 653.976 37.9903 656.059 36.1189L654.722 34.6311C653.118 36.0722 650.794 36.8594 647.609 36.8594V38.8594ZM656.066 36.1127C658.17 34.1866 659.156 31.4484 659.156 28.0625H657.156C657.156 31.0516 656.299 33.1884 654.715 34.6373L656.066 36.1127ZM659.156 28.0625C659.156 24.7053 658.168 21.9949 656.059 20.0998L654.722 21.5877C656.3 23.0051 657.156 25.1072 657.156 28.0625H659.156ZM656.072 20.1119C654.021 18.2022 651.2 17.3125 647.75 17.3125V19.3125C650.863 19.3125 653.135 20.1103 654.709 21.5756L656.072 20.1119ZM647.75 17.3125H642.031V19.3125H647.75V17.3125Z" fill="#FDFDFD"/>
</svg>
