<svg width="48" height="42" viewBox="0 0 48 42" fill="none" xmlns="http://www.w3.org/2000/svg">
<path d="M18.8965 34L16.9629 27.8477H8.05078L6.11719 34H0.667969L9.47461 8.63477H15.7148L24.5391 34H18.8965ZM12.4453 13.4863L9.19336 23.875H15.8203L12.5684 13.4863H12.4453ZM38.7246 34H27.4922V8.63477H38.5312C40.9102 8.63477 42.7969 9.20312 44.1914 10.3398C45.5859 11.4766 46.2832 13.0176 46.2832 14.9629C46.2832 16.3457 45.8262 17.5586 44.9121 18.6016C44.0098 19.6445 42.8789 20.2656 41.5195 20.4648V20.6055C43.2539 20.7344 44.6836 21.373 45.8086 22.5215C46.9336 23.6699 47.4961 25.0762 47.4961 26.7402C47.4961 28.9785 46.7109 30.748 45.1406 32.0488C43.5703 33.3496 41.4316 34 38.7246 34ZM32.8008 12.5898V19.1816H36.6152C38.0332 19.1816 39.1289 18.8887 39.9023 18.3027C40.6758 17.7051 41.0625 16.8672 41.0625 15.7891C41.0625 14.7695 40.7227 13.9844 40.043 13.4336C39.3633 12.8711 38.4023 12.5898 37.1602 12.5898H32.8008ZM32.8008 30.0449H37.3711C38.9062 30.0449 40.0723 29.7285 40.8691 29.0957C41.6777 28.4512 42.082 27.5254 42.082 26.3184C42.082 25.1348 41.666 24.2324 40.834 23.6113C40.0137 22.9902 38.8184 22.6797 37.248 22.6797H32.8008V30.0449Z" fill="#FDFDFD"/>
</svg>
